# xmcd
#
# Track frame offsets:
# 150
# 23792
# 43267
# 63190
# 83092
# 112042
# 130627
# 154912
# 165385
# 190917
# 207510
# 221685
# 231505
# 245210
#
# Disc length: 3542 seconds
#
# Revision: 5
# Processed by: cddbd v1.5.2PL0 Copyright (c) Steve Scherf et al.
# Submitted via: TinyPlayer 2.8
#
DISCID=c90dd40e
DTITLE=Chris Rea - Dancing with Strangers
DYEAR=1987
DGENRE=Rock
TTITLE0=Joys of Christmas
TTITLE1=I Can't Dance to That
TTITLE2=Windy Town
TTITLE3=Gonna Buy a Hat
TTITLE4=Curse of the Traveller
TTITLE5=Let's Dance
TTITLE6=Que Sera
TTITLE7=Josie's Tune
TTITLE8=Loving You Again
TTITLE9=That Girl of Mine
TTITLE10=September Blue
TTITLE11=I Don't Care Any More
TTITLE12=Donahue's Broken Wheel
TTITLE13=Danielle's Breakfast
EXTD=Location:  - UPC: 022924237829 - Catalogue number: 2292-42378-2 - Label: EastWest - ASIN: B00000737X - Release Date: 1987 - Discogs: a25767,m114662,r1824599 - MUSICBRAINZ_ALBUMID: 057fff2a-b12d-3637-bf70-35e876bac7aa - AMG: mn0000096744,mw0000193115 - Album
EXTD=re-released: 1991 12 01
EXTT0=
EXTT1=
EXTT2=
EXTT3=
EXTT4=
EXTT5=
EXTT6=
EXTT7=
EXTT8=
EXTT9=
EXTT10=
EXTT11=
EXTT12=
EXTT13=
PLAYORDER=
